<svg xmlns="http://www.w3.org/2000/svg"><symbol id="back-to-top" viewBox="0 0 256 256"><path fill="#32c0e0" d="M0-.2h256.2v256.25H0z"/><path fill="#fff" d="M64.5 32.8h127.2v16.87H64.5zm66.9 23.8l-66.9 55.8h25.4l-.6 57h79.4v-53.3h23l-60.3-59.5zm-82 141.7h7c4.8 0 8.1 1.6 8.1 5.8a5.1 5.1 0 0 1-3.4 5.1 5.6 5.6 0 0 1 4.8 5.7c0 4.6-3.7 6.9-9 6.9h-7.5zm6.5 10c4 0 5.7-1.4 5.7-3.8s-1.9-3.8-5.6-3.8h-3.6v7.6zm.6 11.2c4.1 0 6.4-1.4 6.4-4.6s-2.3-4.3-6.4-4.3h-4.1v8.9zm12.7-2.1c0-3.8 3.3-5.7 10.7-6.6 0-2.2-.7-4.4-3.6-4.4a9.9 9.9 0 0 0-5.2 1.9l-1.1-2a12.2 12.2 0 0 1 6.8-2.3c4.3 0 6.1 2.8 6.1 7.2v10.7h-2.4l-.3-2.1h-.1a9 9 0 0 1-5.8 2.5c-2.9 0-5.1-1.8-5.1-4.9zm10.7.2v-4.8c-5.8.7-7.8 2.1-7.8 4.4s1.4 2.8 3.1 2.8 3-.9 4.7-2.4zm7.2-4.4c0-5.9 4-9.2 8.5-9.2a7.2 7.2 0 0 1 5.1 2l-1.5 2a5.2 5.2 0 0 0-3.5-1.6c-3.2 0-5.5 2.8-5.5 6.8s2.2 6.7 5.4 6.7a6.2 6.2 0 0 0 4.1-1.8l1.3 2a8.7 8.7 0 0 1-5.7 2.2c-4.6 0-8.2-3.3-8.2-9.1zm17.8-16.9h2.9v17.3h.1l7.4-9.2h3.3l-5.9 7 6.7 10.5h-3.2l-5.2-8.4-3.2 3.8v4.6h-2.9zm25.5 20.2v-9.7h-2.6v-2.2l2.7-.2.4-4.9h2.5v4.9h4.7v2.4h-4.7v9.7c0 2.2.6 3.4 2.7 3.4a5.8 5.8 0 0 0 1.9-.4l.6 2.2a11.3 11.3 0 0 1-3.2.6c-3.8 0-5-2.3-5-5.8zm9.8-3.3c0-5.9 3.9-9.2 8.1-9.2s8.1 3.3 8.1 9.2-3.8 9.1-8.1 9.1-8.1-3.3-8.1-9.1zm13.2 0c0-4-2-6.8-5.1-6.8s-5 2.8-5 6.8 2.1 6.7 5 6.7 5.1-2.7 5.1-6.7zm20-12.4h-7.1v-2.5h17.3v2.5h-7.1v21.1h-3.1zm10.5 12.4c0-5.9 3.8-9.2 8.1-9.2s8.1 3.3 8.1 9.2-3.8 9.1-8.1 9.1-8.1-3.3-8.1-9.1zm13.1 0c0-4-2-6.8-5-6.8s-5.1 2.8-5.1 6.8 2.1 6.7 5.1 6.7 5-2.7 5-6.7zm7.7-8.8h2.4l.3 2h.1a9.2 9.2 0 0 1 5.6-2.4c4.5 0 6.9 3.5 6.9 8.9s-3.6 9.4-7.6 9.4a7.7 7.7 0 0 1-4.8-2v9h-2.9zm12.2 8.5c0-3.8-1.3-6.4-4.6-6.4-1.5 0-2.9.8-4.7 2.3v9.2a6.9 6.9 0 0 0 4.3 1.9c2.9 0 5-2.7 5-7z"/></symbol><symbol id="instagram" viewBox="0 0 256 256"><circle cx="128" cy="128" r="110.7" fill="#fff"/><path fill="#32c0e0" d="M92.9 60.3s-34.4 2.6-35.1 39v63s2 38.1 36.5 39.1 66 0 66 0 32.7 1.3 39.2-34.1c.8-36.2 0-62 0-62s4.7-38.4-34.7-45c-21-1.2-58.1-1.2-71.9 0z"/><path fill="#fff" d="M95.1 72.7H162s22.2.8 24.9 25.2c1.3 21.1 0 63.9 0 63.9s-.8 26.1-27.2 26.7-64 0-64 0-24.5-1.7-25-26.3 0-62.9 0-62.9.8-24.2 24.4-26.6z"/><path fill="#32c0e0" d="M128.3 93.8s-35.8 1-36.3 38.8c4.4 33.9 31.9 35 37 34.7s34.7-2.5 36.6-36.7c-3.6-37.3-37.3-36.8-37.3-36.8z"/><path fill="#fff" d="M128.8 106.8s22.8.7 23.8 23.9c-1.6 22.8-23.8 23.7-23.8 23.7s-23.3-.7-24-23.8c2.3-24.3 24-23.8 24-23.8z"/><path fill="#32c0e0" d="M166.7 84s8.6-.4 8.9 8.6-8.9 8.8-8.9 8.8-8.6-1.4-8.6-8.7 8.6-8.7 8.6-8.7z"/></symbol><symbol id="twitter" viewBox="0 0 256 256"><circle cx="128" cy="128" r="110.7" fill="#fff"/><path fill="#32c0e0" d="M70.7 80.7c-10.7 23.7 9.8 40.6 9.8 40.6-6.2.7-13.5-3.6-13.5-3.6-.2 24.6 24 30.2 24 30.2-7.9 2.8-13.5.6-13.5.6 8.8 21.4 28.5 21.2 28.5 21.2a65.9 65.9 0 0 1-44.3 12.9c62.5 36.8 135.9-10.5 132.7-77.5 7.3-5.2 14.9-15.9 14.9-15.9-3.8 3.4-16.8 5.1-16.8 5.1 11.1-8.7 13.2-16.9 13.2-16.9-3.6 3.9-19.9 7.3-19.9 7.3-13.9-16.7-56.5-12.6-51.8 28.1-34 3.6-63.3-32.1-63.3-32.1z"/></symbol><symbol id="back" viewBox="0 0 256 256"><path fill="#32c0e0" d="M66.3 124.7l55.8 66.9v-25.3l57 .5V87.4h-53.2v-23l-59.6 60.3z"/></symbol><symbol id="linkedin" viewBox="0 0 256 256"><circle cx="128" cy="128" r="110.7" fill="#fff"/><path fill="#32c0e0" d="M87.7 72.8s-12-1.5-13.1 14.6c2.1 13.1 14.6 12.8 14.6 12.8s13.1.5 13.6-13.7-15.1-13.7-15.1-13.7zm-10.8 37.5h23.4v75.48H76.9zm38.5 0h22.9v10s7-15.6 28.9-11.5 21.2 26.1 21.2 26.1l1.5 50.8h-25.2l-.5-45.5s-.2-10.8-13.3-11.1c-10.3.5-11.3 12.4-11.3 12.4v44.2h-24.2z"/></symbol><symbol id="vimeo" viewBox="0 0 256 256"><circle cx="128" cy="128" r="110.7" fill="#fff"/><path fill="#32c0e0" d="M56.8 108.1l6.1 7.9s14.6-14.6 17.7 2.1c6 17.1 16.8 82.4 42.4 72.7s89.8-90.6 56.4-111c-27.1-9.7-45.3 15.5-46.5 28 0 0 21.5-11 17.3 14.3-3.4 5.8-19.8 39.8-24.6 22.8s-8.6-29.2-11.9-47.8-12.8-23.4-28.3-14.2c-13.7 10.3-28.6 25.2-28.6 25.2z"/></symbol><symbol id="facebook" viewBox="0 0 256 256"><circle cx="128" cy="128" r="110.7" fill="#fff"/><path fill="#32c0e0" d="M165.9 50.5v26.3c-33.2-1.8-28.7 4.8-29.3 32h29.3l-4.2 29.6h-25.1V212h-29.9v-73.6l-25.1-.3v-28.7l25.7-.3C97.2 41.2 145 50.8 165.9 50.5z"/></symbol></svg>